<svg width="128" height="128" viewBox="0 0 128 128" fill="none" xmlns="http://www.w3.org/2000/svg">
  <rect width="128" height="128" rx="28" fill="url(#paint0_linear)" />
  <g filter="url(#filter0_d)">
    <path
      d="M39 86V42.5C39 41.1193 40.1193 40 41.5 40H62.75C70.1731 40 75.75 45.5769 75.75 53C75.75 57.8477 73.1292 61.6943 68.9459 63.7864L86 86H74.4954L60.6637 67.8462H51.75V86H39Z"
      fill="white"
      opacity="0.92"
    />
    <path
      d="M88 42V86.5C88 87.8807 86.8807 89 85.5 89H64.25C56.8269 89 51.25 83.4231 51.25 76C51.25 71.1523 53.8708 67.3057 58.0541 65.2136L41 43H52.5046L66.3363 61.1538H75.25V42H88Z"
      fill="url(#paint1_linear)"
      opacity="0.9"
    />
  </g>
  <defs>
    <linearGradient id="paint0_linear" x1="16" y1="12" x2="124" y2="120" gradientUnits="userSpaceOnUse">
      <stop stop-color="#1E3A8A" />
      <stop offset="0.5" stop-color="#312E81" />
      <stop offset="1" stop-color="#9333EA" />
    </linearGradient>
    <linearGradient id="paint1_linear" x1="51" y1="43" x2="96" y2="98" gradientUnits="userSpaceOnUse">
      <stop stop-color="#38BDF8" />
      <stop offset="1" stop-color="#A855F7" />
    </linearGradient>
    <filter id="filter0_d" x="30" y="36" width="66" height="62" filterUnits="userSpaceOnUse" color-interpolation-filters="sRGB">
      <feFlood flood-opacity="0" result="BackgroundImageFix" />
      <feColorMatrix in="SourceAlpha" type="matrix" values="0 0 0 0 0 0 0 0 0 0 0 0 0 0 0 0 0 0 127 0" result="hardAlpha" />
      <feOffset dy="4" />
      <feGaussianBlur stdDeviation="4" />
      <feComposite in2="hardAlpha" operator="out" />
      <feColorMatrix type="matrix" values="0 0 0 0 0.145098 0 0 0 0 0.0980392 0 0 0 0 0.301961 0 0 0 0.15 0" />
      <feBlend mode="normal" in2="BackgroundImageFix" result="effect1_dropShadow" />
      <feBlend mode="normal" in="SourceGraphic" in2="effect1_dropShadow" result="shape" />
    </filter>
  </defs>
</svg>
